<?xml version="1.0" encoding="UTF-8"?>
<svg id="Capa_1" data-name="Capa 1" xmlns="http://www.w3.org/2000/svg" viewBox="0 0 790.47 518.16">
  <defs>
    <style>
      .cls-1, .cls-2, .cls-3, .cls-4 {
        font-family: VAL, VAL;
        font-size: 108.03px;
      }

      .cls-1, .cls-3 {
        fill: none;
      }

      .cls-1, .cls-3, .cls-4 {
        stroke: #1d1d1b;
      }

      .cls-5 {
        letter-spacing: -.02em;
      }

      .cls-2, .cls-4 {
        fill: #fff;
      }

      .cls-6 {
        letter-spacing: 0em;
      }

      .cls-3, .cls-4 {
        stroke-miterlimit: 10;
        stroke-width: 3px;
      }

      .cls-7 {
        fill: #a472af;
      }
    </style>
  </defs>
  <text class="cls-4" transform="translate(111.09 297.18)"><tspan class="cls-5" x="0" y="0">G</tspan><tspan x="72.28" y="0">O</tspan></text>
  <path class="cls-7" d="M599.98,155.93c-.3,2.85-.46,5.73-.94,8.55-1.56,9.2-5.98,13.78-15.25,15.5-4.35,.81-8.8,1.09-14.02,1.71,3.59,1.21,6.47,.97,9.3,1.15,12.7,.81,18.96,6.45,20.17,18.22,.29,2.78,.6,5.57,.9,8.35,.86-1.98,1.04-4,1.17-6.03,.81-12.46,5.7-17.9,17.88-20.19,3.61-.68,7.41,.14,11.91-1.65-4.19-.36-7.38-.64-10.56-.9-10.59-.86-16.8-5.98-18.39-15.34-.52-3.06-.7-6.19-1.03-9.28,.31-3.66,.4-7.31-.11-10.93-.34,0-.68,0-1.02,.01v10.83Zm17.77,40.02c5.95,2.12,11.94,4.12,17.83,6.38,15.13,5.81,29.26,13.29,40.81,24.99,17.99,18.21,18.06,39.6,.15,57.84-12.63,12.86-28.34,20.55-44.93,26.68-20.08,7.42-40.89,11.59-62.14,13.85-21.5,2.29-42.99,2.75-64.53,.65-3.12-.3-6.25-.4-9.38-.58-.02,.32-.04,.63-.06,.95,8.57,1.87,17.19,3.55,25.92,4.39,24.61,2.39,49.24,2.71,73.87,.23,26.55-2.68,52.35-8.34,76.69-19.61,13.68-6.33,26.48-13.98,35.92-26.18,11.49-14.85,11.9-30.58,1.16-45.99-4.33-6.21-9.92-11.2-16.02-15.6-15.36-11.09-32.63-18.02-50.74-23.09-8.03-2.25-16.1-4.21-24.54-4.9Z"/>
  <g>
    <text class="cls-2" transform="translate(289.55 298.95)"><tspan x="0" y="0">TI</tspan><tspan class="cls-6" x="107.71" y="0">C</tspan><tspan x="182.36" y="0">KET</tspan></text>
    <text class="cls-1" transform="translate(289.55 298.95)"><tspan x="0" y="0">TI</tspan><tspan class="cls-6" x="107.71" y="0">C</tspan><tspan x="182.36" y="0">KET</tspan></text>
    <text class="cls-3" transform="translate(289.55 298.95)"><tspan x="0" y="0">TI</tspan><tspan class="cls-6" x="107.71" y="0">C</tspan><tspan x="182.36" y="0">KET</tspan></text>
  </g>
</svg>