<?xml version="1.0" encoding="UTF-8"?>
<svg id="Capa_1" data-name="Capa 1" xmlns="http://www.w3.org/2000/svg" viewBox="0 0 790.47 518.16">
  <defs>
    <style>
      .cls-1 {
        fill: none;
        font-family: VAL, VAL;
        font-size: 266.19px;
        stroke: #1d1d1b;
        stroke-miterlimit: 10;
        stroke-width: 3px;
      }

      .cls-2 {
        letter-spacing: -.02em;
      }

      .cls-3 {
        fill: #a472af;
      }
    </style>
  </defs>
  <text class="cls-1" transform="translate(179.04 369.46)"><tspan class="cls-2" x="0" y="0">G</tspan><tspan x="178.08" y="0">O</tspan></text>
  <path class="cls-3" d="M398.73,59.66c-.64,5.99-.96,12.04-1.97,17.97-3.29,19.34-12.58,28.96-32.06,32.58-9.15,1.7-18.5,2.3-29.48,3.6,7.55,2.54,13.61,2.05,19.56,2.43,26.71,1.71,39.86,13.57,42.4,38.3,.6,5.85,1.26,11.7,1.89,17.55,1.8-4.15,2.18-8.41,2.46-12.67,1.7-26.19,11.99-37.63,37.59-42.46,7.59-1.43,15.58,.29,25.04-3.46-8.82-.75-15.51-1.34-22.21-1.89-22.26-1.81-35.33-12.58-38.66-32.25-1.09-6.44-1.47-13.01-2.17-19.52,.65-7.7,.85-15.38-.24-22.97-.71,.01-1.43,.02-2.14,.03v22.76Zm37.35,84.14c12.5,4.45,25.1,8.65,37.49,13.41,31.81,12.21,61.51,27.95,85.79,52.53,37.82,38.29,37.97,83.25,.31,121.61-26.54,27.04-59.58,43.2-94.46,56.1-42.22,15.61-85.97,24.36-130.65,29.11-45.2,4.8-90.39,5.77-135.67,1.37-6.55-.64-13.14-.83-19.72-1.23-.04,.66-.08,1.33-.13,1.99,18.01,3.93,36.14,7.45,54.49,9.23,51.73,5.02,103.51,5.7,155.3,.48,55.82-5.63,110.06-17.54,161.23-41.23,28.76-13.31,55.68-29.4,75.52-55.04,24.15-31.23,25.01-64.29,2.43-96.69-9.1-13.05-20.86-23.54-33.68-32.79-32.3-23.32-68.59-37.89-106.67-48.55-16.87-4.72-33.85-8.85-51.59-10.29Z"/>
</svg>