<?xml version="1.0" encoding="UTF-8"?>
<svg id="Capa_1" data-name="Capa 1" xmlns="http://www.w3.org/2000/svg" viewBox="0 0 790.47 518.16">
  <defs>
    <style>
      .cls-1 {
        letter-spacing: 0em;
      }

      .cls-2 {
        fill: #fff;
        font-family: VAL, VAL;
        font-size: 241.71px;
        stroke: #1d1d1b;
        stroke-miterlimit: 10;
        stroke-width: 3px;
      }

      .cls-3 {
        letter-spacing: -.03em;
      }

      .cls-4 {
        letter-spacing: -.02em;
      }

      .cls-5 {
        fill: #a472af;
      }
    </style>
  </defs>
  <path class="cls-5" d="M452.94,71.31c-.58,5.44-.87,10.93-1.79,16.32-2.99,17.57-11.43,26.3-29.11,29.58-8.31,1.54-16.8,2.09-26.77,3.27,6.86,2.31,12.36,1.86,17.76,2.2,24.25,1.55,36.19,12.32,38.5,34.78,.55,5.32,1.14,10.63,1.72,15.94,1.64-3.77,1.98-7.64,2.23-11.51,1.54-23.78,10.88-34.17,34.14-38.55,6.89-1.3,14.14,.27,22.74-3.15-8.01-.68-14.09-1.22-20.17-1.71-20.21-1.64-32.08-11.42-35.11-29.28-.99-5.85-1.33-11.81-1.97-17.72,.59-6.99,.77-13.96-.22-20.86-.65,0-1.3,.02-1.94,.03v20.67Zm33.92,76.4c11.35,4.04,22.79,7.86,34.04,12.17,28.88,11.08,55.85,25.38,77.9,47.7,34.34,34.76,34.48,75.6,.28,110.43-24.1,24.55-54.1,39.23-85.78,50.94-38.34,14.17-78.06,22.12-118.64,26.44-41.05,4.36-82.08,5.24-123.19,1.24-5.95-.58-11.93-.75-17.9-1.12-.04,.6-.08,1.2-.12,1.81,16.35,3.57,32.82,6.77,49.48,8.38,46.97,4.56,93.99,5.18,141.02,.43,50.68-5.12,99.93-15.92,146.41-37.44,26.11-12.09,50.56-26.69,68.57-49.98,21.93-28.35,22.71-58.38,2.21-87.8-8.26-11.85-18.94-21.38-30.58-29.78-29.33-21.18-62.28-34.41-96.86-44.08-15.32-4.29-30.73-8.04-46.84-9.35Z"/>
  <text class="cls-2" transform="translate(114.5 356.97)"><tspan class="cls-4" x="0" y="0">G</tspan><tspan class="cls-3" x="161.7" y="0">O</tspan><tspan class="cls-1" x="336.22" y="0">T</tspan></text>
</svg>